HIERARCHY
ROOT Hips
{
	OFFSET 0.000000 0.000000 0.000000
	CHANNELS 6 Xposition Yposition Zposition Zrotation Yrotation Xrotation 
	JOINT LHipJoint
	{
		OFFSET 0.000000 0.000000 0.000000
		CHANNELS 3 Zrotation Yrotation Xrotation
		JOINT LeftUpLeg
		{
			OFFSET 1.363060 -1.794630 0.839290
			CHANNELS 3 Zrotation Yrotation Xrotation
			JOINT LeftLeg
			{
				OFFSET 2.448110 -6.726130 0.000000
				CHANNELS 3 Zrotation Yrotation Xrotation
				JOINT LeftFoot
				{
					OFFSET 2.562200 -7.039590 0.000000
					CHANNELS 3 Zrotation Yrotation Xrotation
					JOINT LeftToeBase
					{
						OFFSET 0.157640 -0.433110 2.322550
						CHANNELS 3 Zrotation Yrotation Xrotation
						End Site
						{
							OFFSET 0.000000 0.000000 0.000000
						}
					}
				}
			}
		}
	}
	JOINT RHipJoint
	{
		OFFSET 0.000000 0.000000 0.000000
		CHANNELS 3 Zrotation Yrotation Xrotation
		JOINT RightUpLeg
		{
			OFFSET -1.305520 -1.794630 0.839290
			CHANNELS 3 Zrotation Yrotation Xrotation
			JOINT RightLeg
			{
				OFFSET -2.542530 -6.985550 0.000000
				CHANNELS 3 Zrotation Yrotation Xrotation
				JOINT RightFoot
				{
					OFFSET -2.568260 -7.056230 0.000000
					CHANNELS 3 Zrotation Yrotation Xrotation
					JOINT RightToeBase
					{
						OFFSET -0.164730 -0.452590 2.363150
						CHANNELS 3 Zrotation Yrotation Xrotation
						End Site
						{
							OFFSET 0.000000 0.000000 0.000000
						}
					}
				}
			}
		}
	}
}
MOTION
Frames: 30
Frame Time: 0.008333
4.213525 17.358226 1.287483 -177.198208 -58.627257 -162.838116 -11.366496 2.331946 -4.130672 -14.392103 32.289465 -19.574727 -3.592731 -1.253206 -5.897510 1.940814 14.582718 1.547112 2.535800 -0.000000 -38.564000 9.375669 -0.021374 4.374350 -2.030031 10.602427 -23.042799 2.955785 1.529266 -5.488034 1.537142 7.996621 14.805616 2.183000 0.000000 -69.711400
4.210914 17.359136 1.286473 -177.296497 -58.775718 -162.660077 -11.363515 2.329479 -4.079938 -14.481390 32.079588 -19.658155 -3.586529 -1.265024 -5.922615 1.951192 14.616203 1.566757 2.548299 0.000000 -38.479099 9.376276 -0.024317 4.369976 -2.062482 10.479031 -23.118603 2.952999 1.533973 -5.530989 1.535473 7.977071 14.826886 2.179000 0.000000 -69.703000
4.209534 17.359957 1.285630 -177.407016 -58.955912 -162.502799 -11.367022 2.327522 -4.022735 -14.541909 31.849076 -19.704410 -3.575754 -1.276177 -5.947307 1.962452 14.654957 1.585559 2.561000 -0.000000 -38.389700 9.373214 -0.030487 4.360608 -2.086503 10.344462 -23.164680 2.949030 1.536969 -5.547623 1.529605 7.936325 14.821901 2.165500 -0.000000 -69.686900
4.209544 17.360607 1.285149 -177.526314 -59.159606 -162.367582 -11.376013 2.325838 -3.963550 -14.575815 31.608149 -19.718165 -3.561525 -1.285469 -5.968891 1.973429 14.693213 1.600462 2.572500 0.000000 -38.299000 9.366825 -0.037195 4.344963 -2.103189 10.206241 -23.189360 2.943265 1.537104 -5.523270 1.518953 7.872683 14.784054 2.141700 0.000000 -69.662100
4.210940 17.361034 1.285171 -177.649012 -59.377366 -162.254549 -11.389557 2.324434 -3.906694 -14.585500 31.366022 -19.704405 -3.544957 -1.291753 -5.984270 1.982478 14.726113 1.608523 2.581900 -0.000000 -38.211200 9.357772 -0.042358 4.322355 -2.115620 10.071078 -23.179104 2.936671 1.537075 -5.492900 1.505670 7.783736 14.734348 2.106800 0.000001 -69.629200
4.213712 17.361201 1.285703 -177.772209 -59.601332 -162.161884 -11.406596 2.323274 -3.855454 -14.575353 31.130970 -19.670261 -3.527288 -1.294378 -5.991524 1.988638 14.748823 1.608840 2.588600 -0.000000 -38.130000 9.346542 -0.044410 4.292723 -2.125838 9.945020 -23.136443 2.929253 1.537252 -5.461118 1.490213 7.669217 14.677110 2.060500 0.000000 -69.587900
4.217673 17.361113 1.286620 -177.892878 -59.825948 -162.085688 -11.426163 2.322295 -3.812035 -14.549921 30.909240 -19.622807 -3.509680 -1.293201 -5.989798 1.990900 14.757825 1.601896 2.592300 -0.000000 -38.058700 9.333621 -0.042636 4.256923 -2.135973 9.832938 -23.066423 2.920996 1.538008 -5.432450 1.473200 7.529681 14.616118 2.003300 -0.000001 -69.539001
4.222753 17.360815 1.287733 -178.010296 -60.047901 -162.021190 -11.447077 2.321228 -3.778246 -14.514361 30.705831 -19.568369 -3.493292 -1.288451 -5.979548 1.988857 14.749199 1.590351 2.592900 0.000000 -37.999900 9.319753 -0.036891 4.215842 -2.147932 9.737597 -22.973745 2.911650 1.539407 -5.410410 1.454889 7.366323 14.554515 1.935800 0.000001 -69.483101
4.228630 17.360323 1.288857 -178.123223 -60.266414 -161.961986 -11.468510 2.319786 -3.751773 -14.474560 30.517375 -19.516823 -3.478517 -1.281130 -5.962552 1.982831 14.724649 1.575603 2.591100 0.000000 -37.953500 9.304987 -0.028048 4.172104 -2.161570 9.658286 -22.867701 2.901811 1.542138 -5.400969 1.436129 7.182816 14.497456 1.859900 0.000000 -69.419999
4.235392 17.359751 1.289756 -178.234896 -60.482635 -161.902877 -11.489128 2.317295 -3.734961 -14.433624 30.348081 -19.469004 -3.466251 -1.271754 -5.941340 1.972950 14.680804 1.563350 2.586800 -0.000000 -37.920600 9.290574 -0.016347 4.125944 -2.179194 9.595739 -22.751526 2.890545 1.545487 -5.403688 1.416481 6.980192 14.444926 1.776300 0.000000 -69.352600
4.242596 17.359125 1.290217 -178.343701 -60.697814 -161.837683 -11.508507 2.313578 -3.723601 -14.396289 30.189999 -19.432426 -3.456280 -1.261741 -5.918023 1.960394 14.623160 1.554149 2.581100 0.000000 -37.898400 9.276448 -0.003398 4.079990 -2.199738 9.544574 -22.633037 2.878777 1.550173 -5.424574 1.396960 6.765959 14.401439 1.688200 0.000001 -69.280600
4.250232 17.358508 1.290143 -178.451311 -60.914949 -161.763094 -11.525883 2.308035 -3.718553 -14.364107 30.043146 -19.405908 -3.448796 -1.251767 -5.896809 1.946184 14.551111 1.553258 2.574000 0.000000 -37.886000 9.263381 0.010500 4.034269 -2.223695 9.503899 -22.516107 2.865842 1.555418 -5.459946 1.376738 6.540852 14.365404 1.596299 -0.000000 -69.208100
4.258200 17.357943 1.289386 -178.561299 -61.135259 -161.674163 -11.540875 2.300625 -3.715686 -14.340289 29.899288 -19.393565 -3.443221 -1.242973 -5.879834 1.931672 14.471290 1.560958 2.566700 0.000000 -37.879000 9.251445 0.024119 3.990593 -2.249980 9.466800 -22.406008 2.852535 1.561659 -5.513912 1.356984 6.313004 14.340305 1.503900 -0.000000 -69.135300
4.266286 17.357469 1.287981 -178.671237 -61.360045 -161.570253 -11.553466 2.291043 -3.715116 -14.324144 29.756449 -19.393221 -3.439234 -1.235717 -5.869680 1.917788 14.385795 1.579055 2.559100 0.000000 -37.875200 9.240833 0.037500 3.948441 -2.278038 9.432045 -22.305711 2.838626 1.568307 -5.580653 1.336951 6.083811 14.323027 1.411800 0.000000 -69.065801
4.274408 17.357103 1.285826 -178.785171 -61.590546 -161.447229 -11.563459 2.279492 -3.713020 -14.318954 29.608804 -19.407543 -3.436516 -1.231212 -5.869171 1.905730 14.298788 1.608246 2.551900 0.000000 -37.870000 9.230833 0.050890 3.909312 -2.305025 9.399132 -22.287302 2.819976 1.565189 -5.522101 1.311447 5.862788 14.236275 1.322700 -0.000000 -68.998200
4.282486 17.356870 1.283041 -178.902250 -61.824941 -161.307163 -11.571043 2.266032 -3.709403 -14.322786 29.454121 -19.434225 -3.434427 -1.229076 -5.877833 1.896026 14.214191 1.647113 2.545499 0.000000 -37.861000 9.221979 0.063666 3.872618 -2.331898 9.362811 -22.293312 2.800742 1.560973 -5.453864 1.285932 5.649371 14.146219 1.237300 0.000000 -68.935900
4.290251 17.356734 1.279681 -179.020745 -62.061365 -161.149507 -11.576619 2.251294 -3.702520 -14.336560 29.290624 -19.473672 -3.432748 -1.229582 -5.895860 1.889130 14.135351 1.694147 2.540300 0.000001 -37.845600 9.214046 0.075257 3.839315 -2.358524 9.320806 -22.320626 2.781769 1.556687 -5.385911 1.261205 5.446749 14.058646 1.156800 0.000000 -68.878800
4.297809 17.356717 1.275885 -179.142626 -62.296609 -160.976565 -11.580130 2.235263 -3.692292 -14.358282 29.116662 -19.524283 -3.430949 -1.232236 -5.919871 1.884793 14.066244 1.745360 2.537100 0.000000 -37.822401 9.206971 0.086172 3.808714 -2.384338 9.272820 -22.365383 2.763407 1.552519 -5.321097 1.237654 5.257447 13.975701 1.082200 -0.000000 -68.828000
4.304797 17.356753 1.271561 -179.266767 -62.529311 -160.785967 -11.582345 2.219040 -3.677196 -14.391451 28.936101 -19.588467 -3.429744 -1.237633 -5.954972 1.883703 14.002627 1.803627 2.534299 -0.000000 -37.789700 9.200233 0.095580 3.783139 -2.410345 9.219648 -22.430003 2.746103 1.549206 -5.262227 1.215479 5.080890 13.898208 1.013100 -0.000001 -68.780500
4.311455 17.356816 1.266980 -179.392945 -62.753859 -160.583991 -11.582962 2.202196 -3.659040 -14.430868 28.747292 -19.662052 -3.428192 -1.244396 -5.991185 1.884419 13.952198 1.860022 2.534199 0.000000 -37.748800 9.193972 0.104819 3.760202 -2.436285 9.162472 -22.506617 2.730009 1.546662 -5.211950 1.194975 4.919543 13.828075 0.950400 -0.000000 -68.738900
4.317656 17.356857 1.262224 -179.519501 -62.966864 -160.372561 -11.582352 2.185228 -3.638511 -14.476057 28.553363 -19.743728 -3.426467 -1.252115 -6.026398 1.886547 13.914472 1.912414 2.536300 -0.000000 -37.700300 9.187988 0.114087 3.739882 -2.462775 9.103035 -22.592388 2.715344 1.545167 -5.172204 1.176345 4.774145 13.765679 0.894200 0.000000 -68.702500
4.323334 17.356828 1.257224 -179.647379 -63.167067 -160.149700 -11.581025 2.168711 -3.615656 -14.530032 28.360494 -19.835991 -3.425512 -1.261126 -6.066347 1.890506 13.881908 1.964151 2.538601 -0.000000 -37.645400 9.181842 0.123147 3.723765 -2.491256 9.044798 -22.688380 2.702141 1.545312 -5.145501 1.159332 4.640512 13.711148 0.842800 -0.000000 -68.668400
4.328673 17.356667 1.252174 -179.775850 -63.349386 -159.921203 -11.577638 2.151834 -3.593199 -14.587714 28.167982 -19.946368 -3.425450 -1.267949 -6.073551 1.891170 13.859951 1.992065 2.542999 -0.000000 -37.586700 9.175778 0.133277 3.709165 -2.521635 8.988205 -22.787337 2.690416 1.546777 -5.132067 1.144251 4.521866 13.664905 0.797400 0.000000 -68.638000
4.333643 17.356355 1.247064 -179.903898 -63.513409 -159.687356 -11.573095 2.135039 -3.571885 -14.650281 27.979892 -20.066539 -3.426153 -1.274011 -6.068855 1.890996 13.845261 2.007955 2.548399 -0.000000 -37.526199 9.169774 0.144641 3.696077 -2.554756 8.935152 -22.888555 2.680065 1.549730 -5.132998 1.130907 4.416172 13.626287 0.757100 -0.000000 -68.610300
4.338317 17.355848 1.241884 179.968658 -63.658773 -159.448356 -11.568095 2.118499 -3.552734 -14.717022 27.798720 -20.187614 -3.427290 -1.280350 -6.069030 1.891685 13.836034 2.022088 2.554401 -0.000000 -37.465800 9.164009 0.157574 3.683798 -2.591143 8.886632 -22.990676 2.670885 1.554087 -5.148448 1.119159 4.322500 13.594795 0.721600 0.000001 -68.584600
4.342765 17.355119 1.236673 179.842289 -63.786049 -159.205393 -11.562500 2.101956 -3.536797 -14.787462 27.625946 -20.309014 -3.428984 -1.286795 -6.073887 1.892964 13.830518 2.034716 2.560600 -0.000000 -37.407599 9.158682 0.172376 3.671475 -2.630773 8.842643 -23.092340 2.662726 1.559724 -5.178120 1.108879 4.240107 13.569837 0.690400 -0.000000 -68.560600
4.347022 17.354201 1.231364 179.716816 -63.896951 -158.957722 -11.556047 2.085198 -3.524648 -14.862379 27.462394 -20.432691 -3.431584 -1.293209 -6.081674 1.894474 13.826143 2.045406 2.566600 -0.000000 -37.352800 9.153929 0.189182 3.658765 -2.673515 8.802892 -23.194550 2.655474 1.566574 -5.221304 1.099932 4.168018 13.550706 0.663200 0.000000 -68.537800
4.351065 17.353037 1.225957 179.593856 -63.993660 -158.705014 -11.548549 2.067947 -3.516575 -14.941674 27.308117 -20.560428 -3.435320 -1.299558 -6.091182 1.895912 13.820813 2.054192 2.571800 0.000000 -37.302700 9.149951 0.207962 3.645238 -2.719085 8.766338 -23.298162 2.649011 1.574516 -5.276837 1.092171 4.105295 13.536925 0.639701 0.000000 -68.516200
4.354963 17.351694 1.220403 179.473114 -64.079050 -158.447072 -11.539635 2.049841 -3.512862 -15.025294 27.162497 -20.693430 -3.440299 -1.305818 -6.101445 1.897052 13.813181 2.061476 2.576100 -0.000001 -37.257700 9.147014 0.228780 3.630314 -2.766575 8.731413 -23.404046 2.643241 1.583347 -5.343224 1.085509 4.051770 13.527525 0.619800 0.000000 -68.495600
4.358744 17.350204 1.214723 179.355363 -64.156038 -158.184416 -11.529032 2.030635 -3.513293 -15.112879 27.023698 -20.832265 -3.446417 -1.312071 -6.112209 1.897874 13.803239 2.067707 2.579800 0.000001 -37.218100 9.145387 0.251636 3.613341 -2.814408 8.695443 -23.513961 2.638192 1.592724 -5.417549 1.080009 4.008389 13.522363 0.603800 -0.000000 -68.476100
